# This file uses centimeters as units for non-parametric coordinates.

mtllib ship.mtl
g default
v 0.250000 0.074693 -1.000000
v -0.250000 0.074693 -1.000000
v 0.250000 0.574693 -1.000000
v -0.250000 0.574693 -1.000000
v 0.250000 0.324693 1.366621
v -0.250000 0.324693 1.366621
v 0.250000 0.074693 1.733241
v -0.250000 0.074693 1.733241
v 0.333430 -0.008737 -1.166859
v -0.333430 -0.008737 -1.166859
v 0.333430 0.658123 -1.166859
v -0.333430 0.658123 -1.166859
v 0.333430 0.324693 -1.166859
v 0.250000 0.324693 -1.000000
v -0.250000 0.324693 -1.000000
v -0.333430 0.324693 -1.166859
v 0.205615 0.119078 -1.021721
v -0.205615 0.119078 -1.021721
v 0.205615 0.530308 -1.021721
v -0.205615 0.530308 -1.021721
v 0.205615 0.324693 -1.021721
v -0.205615 0.324693 -1.021721
vt 0.375000 0.000000
vt 0.625000 0.000000
vt 0.375000 0.250000
vt 0.625000 0.250000
vt 0.375000 0.562500
vt 0.625000 0.562500
vt 0.375000 0.750000
vt 0.625000 0.750000
vt 0.375000 1.000000
vt 0.625000 1.000000
vt 0.875000 0.000000
vt 0.875000 0.187500
vt 0.125000 0.000000
vt 0.125000 0.187500
vt 0.000000 0.000000
vt 1.000000 0.000000
vt 1.000000 1.000000
vt 0.000000 0.000000
vt 1.000000 0.000000
vt 0.000000 1.000000
vt 0.000000 0.000000
vt 1.000000 0.000000
vt 1.000000 1.000000
vt 0.000000 1.000000
vt 0.000000 0.000000
vt 1.000000 0.000000
vt 1.000000 1.000000
vt 0.000000 1.000000
vt 0.500000 1.000000
vt 0.375000 0.125000
vt 0.500000 0.000000
vt 0.375000 0.125000
vt 0.625000 0.125000
vt 0.500000 0.000000
vt 0.625000 0.125000
vt 0.500000 1.000000
vt 0.000000 0.000000
vt 1.000000 0.000000
vt 1.000000 1.000000
vt 0.000000 1.000000
vt 0.000000 0.000000
vt 1.000000 0.000000
vt 1.000000 1.000000
vt 0.000000 1.000000
vt 0.000000 0.000000
vt 1.000000 0.000000
vt 1.000000 1.000000
vt 0.000000 1.000000
vt 0.000000 0.000000
vt 1.000000 0.000000
vt 1.000000 1.000000
vt 0.000000 1.000000
vt 0.000000 0.000000
vt 1.000000 0.000000
vt 1.000000 1.000000
vt 0.000000 1.000000
vt 0.000000 0.000000
vt 1.000000 0.000000
vt 1.000000 1.000000
vt 0.000000 1.000000
vn 0.000000 0.000000 -1.000000
vn 0.000000 0.000000 -1.000000
vn 0.000000 0.000000 -1.000000
vn 0.000000 0.000000 -1.000000
vn 0.000000 0.994467 0.105051
vn 0.000000 0.994467 0.105051
vn 0.000000 0.994467 0.105051
vn 0.000000 0.994467 0.105051
vn 0.000000 0.826194 0.563385
vn 0.000000 0.826194 0.563385
vn 0.000000 0.826194 0.563385
vn 0.000000 0.826194 0.563385
vn 0.000000 -1.000000 0.000000
vn 0.000000 -1.000000 0.000000
vn 0.000000 -1.000000 0.000000
vn 0.000000 -1.000000 0.000000
vn -1.000000 0.000000 0.000000
vn -1.000000 0.000000 0.000000
vn -1.000000 0.000000 0.000000
vn 1.000000 0.000000 0.000000
vn 1.000000 0.000000 0.000000
vn 1.000000 0.000000 0.000000
vn 1.000000 0.000000 0.000000
vn 0.000000 -0.894427 0.447214
vn 0.000000 -0.894427 0.447214
vn 0.000000 -0.894427 0.447214
vn 0.000000 -0.894427 0.447214
vn 0.000000 0.894427 0.447214
vn 0.000000 0.894427 0.447214
vn 0.000000 0.894427 0.447214
vn 0.000000 0.894427 0.447214
vn 0.894427 0.000000 0.447214
vn 0.894427 0.000000 0.447214
vn 0.894427 0.000000 0.447214
vn 0.894427 0.000000 0.447214
vn -0.894427 0.000000 0.447214
vn -0.894427 0.000000 0.447214
vn -0.894427 0.000000 0.447214
vn -0.894427 0.000000 0.447214
vn 0.894427 0.000000 0.447214
vn 0.894427 0.000000 0.447214
vn 0.894427 0.000000 0.447214
vn 0.894427 0.000000 0.447214
vn 0.000000 0.000000 -1.000000
vn 0.000000 0.000000 -1.000000
vn 0.000000 0.000000 -1.000000
vn 0.000000 0.000000 -1.000000
vn -1.000000 0.000000 0.000000
vn -1.000000 0.000000 0.000000
vn -1.000000 0.000000 0.000000
vn -1.000000 0.000000 0.000000
vn -0.894427 0.000000 0.447214
vn -0.894427 0.000000 0.447214
vn -0.894427 0.000000 0.447214
vn -0.894427 0.000000 0.447214
vn 1.000000 0.000000 0.000000
vn 1.000000 0.000000 0.000000
vn 1.000000 0.000000 0.000000
vn 0.000000 0.750475 -0.660899
vn 0.000000 0.750475 -0.660899
vn 0.000000 0.750475 -0.660899
vn 0.000000 0.750475 -0.660899
vn 0.000000 -0.750475 -0.660899
vn 0.000000 -0.750475 -0.660899
vn 0.000000 -0.750475 -0.660899
vn 0.000000 -0.750475 -0.660899
vn -0.750475 0.000000 -0.660899
vn -0.750475 0.000000 -0.660899
vn -0.750475 0.000000 -0.660899
vn -0.750475 0.000000 -0.660899
vn 0.750475 0.000000 -0.660899
vn 0.750475 0.000000 -0.660899
vn 0.750475 0.000000 -0.660899
vn 0.750475 0.000000 -0.660899
vn -0.750475 0.000000 -0.660899
vn -0.750475 0.000000 -0.660899
vn 0.750475 0.000000 -0.660899
vn 0.750475 0.000000 -0.660899
s off
g pCube2 shivan_space_ship_one
usemtl detailsSG
f 14/32/1 15/33/2 4/4/3 3/3/4
f 3/3/5 4/4/6 6/6/7 5/5/8
f 5/5/9 6/6/10 8/8/11 7/7/12
usemtl bodySG
f 7/7/13 8/8/14 2/10/15 1/9/16
f 15/35/17 6/12/18 4/4/19
f 7/13/20 1/1/21 14/30/22 5/14/23
f 1/15/24 2/16/25 10/17/26 9/24/27
f 3/18/28 11/20/29 12/27/30 4/19/31
f 14/31/32 13/29/33 11/23/34 3/22/35
f 2/25/36 15/34/37 16/36/38 10/28/39
f 1/21/40 9/24/41 13/29/42 14/31/43
usemtl detailsSG
f 1/1/44 2/2/45 15/33/46 14/32/47
usemtl bodySG
f 2/2/48 8/11/49 6/12/50 15/35/51
f 16/36/52 15/34/53 4/26/54 12/27/55
f 5/14/56 14/30/57 3/3/58
usemtl detailsSG
f 9/37/59 10/38/60 18/39/61 17/40/62
f 12/41/63 11/42/64 19/43/65 20/44/66
s 1
f 13/45/67 9/46/68 17/47/69 21/48/70
s 2
f 10/49/71 16/50/72 22/51/73 18/52/74
s 1
f 11/53/75 13/54/67 21/55/70 19/56/76
s 2
f 16/57/72 12/58/77 20/59/78 22/60/73
g default
v -0.532725 0.221449 -0.995011
v -0.244729 0.093211 -0.995011
v -0.244729 0.221449 -0.995011
v -0.254360 0.093211 0.652972
v -0.244729 0.093211 0.652972
vt 0.375000 0.125000
vt 0.625000 0.000000
vt 0.625000 0.250000
vt 0.375000 0.625000
vt 0.625000 0.625000
vt 0.375000 1.000000
vt 0.625000 1.000000
vn 0.000000 0.000000 -1.000000
vn 0.000000 0.000000 -1.000000
vn 0.000000 0.000000 -1.000000
vn 0.000000 0.996986 0.077581
vn 0.000000 0.996986 0.077581
vn 0.000000 0.996986 0.077581
vn 0.000000 0.996986 0.077581
vn -0.395700 -0.918377 -0.002313
vn -0.395700 -0.918377 -0.002313
vn -0.395700 -0.918377 -0.002313
vn -0.395700 -0.918377 -0.002313
s off
g shivan_space_ship_one pCube4
usemtl detailsSG
f 23/61/79 25/63/80 24/62/81
f 23/61/82 26/64/83 27/65/84 25/63/85
f 26/64/86 23/66/87 24/67/88 27/65/89
g default
v 0.537996 0.219875 -0.985867
v 0.250000 0.091637 -0.985867
v 0.250000 0.219875 -0.985867
v 0.259631 0.091637 0.662116
v 0.250000 0.091637 0.662116
vt 0.375000 0.125000
vt 0.625000 0.000000
vt 0.625000 0.250000
vt 0.375000 0.625000
vt 0.625000 0.625000
vt 0.375000 1.000000
vt 0.625000 1.000000
vn 0.000000 0.000000 -1.000000
vn 0.000000 0.000000 -1.000000
vn 0.000000 0.000000 -1.000000
vn 0.000000 0.996986 0.077581
vn 0.000000 0.996986 0.077581
vn 0.000000 0.996986 0.077581
vn 0.000000 0.996986 0.077581
vn 0.395700 -0.918377 -0.002312
vn 0.395700 -0.918377 -0.002312
vn 0.395700 -0.918377 -0.002312
vn 0.395700 -0.918377 -0.002312
s off
g shivan_space_ship_one pCube3
usemtl detailsSG
f 28/68/90 29/69/91 30/70/92
f 28/68/93 30/70/94 32/72/95 31/71/96
f 31/71/97 32/72/98 29/74/99 28/73/100
